<?xml version="1.0" encoding="utf-8"?>
<!-- Generator: Adobe Illustrator 15.1.0, SVG Export Plug-In . SVG Version: 6.00 Build 0)  -->
<!DOCTYPE svg PUBLIC "-//W3C//DTD SVG 1.1//EN" "http://www.w3.org/Graphics/SVG/1.1/DTD/svg11.dtd">
<svg version="1.1" id="Ebene_1" xmlns="http://www.w3.org/2000/svg" xmlns:xlink="http://www.w3.org/1999/xlink" x="0px" y="0px"
	 width="283.464px" height="283.465px" viewBox="0 0 283.464 283.465" enable-background="new 0 0 283.464 283.465"
	 xml:space="preserve">
<g>
	<path d="M205.79,142.148v-2.941h-24.952c1.514,1.078,3.1,2.061,4.748,2.941H205.79z"/>
	<path d="M175.604,139.207H35.227l-1.091,2.941h145.267C178.086,141.232,176.817,140.25,175.604,139.207z"/>
	<path d="M168.109,131.033H38.259l-1.091,2.941H170.41C169.605,133.025,168.838,132.045,168.109,131.033z"/>
	<path d="M205.79,133.975v-2.941h-33.615c0.82,1.02,1.686,2.002,2.593,2.941H205.79z"/>
	<path d="M205.79,125.801v-2.939h-38.815c0.489,1.002,1.019,1.982,1.582,2.939H205.79z"/>
	<path d="M163.403,122.861H41.292l-1.092,2.939h124.646C164.333,124.84,163.852,123.859,163.403,122.861z"/>
	<path d="M160.628,114.688H44.325l-1.092,2.939h118.197C161.131,116.66,160.865,115.68,160.628,114.688z"/>
	<path d="M205.79,117.627v-2.939h-41.831c0.256,0.994,0.547,1.975,0.871,2.939H205.79z"/>
	<path d="M159.438,106.514H47.357l-1.091,2.939h113.431C159.58,108.482,159.494,107.502,159.438,106.514z"/>
	<path d="M205.79,109.453v-2.939h-43.11c0.059,0.988,0.149,1.971,0.274,2.939H205.79z"/>
	<path d="M205.79,101.279V98.34h-42.836c-0.125,0.971-0.216,1.951-0.274,2.939H205.79z"/>
	<path d="M159.697,98.34H50.391l-1.092,2.939h110.14C159.494,100.291,159.58,99.311,159.697,98.34z"/>
	<path d="M205.79,93.105v-2.939h-40.961c-0.323,0.965-0.614,1.945-0.87,2.939H205.79z"/>
	<path d="M161.43,90.166H53.423l-1.091,2.939h108.296C160.864,92.113,161.131,91.133,161.43,90.166z"/>
	<path d="M164.847,81.992H56.455l-1.091,2.941h108.039C163.851,83.934,164.332,82.953,164.847,81.992z"/>
	<path d="M205.79,84.934v-2.941h-37.234c-0.563,0.957-1.092,1.938-1.582,2.941H205.79z"/>
	<path d="M205.79,76.76v-2.941h-31.022c-0.908,0.939-1.773,1.922-2.594,2.941H205.79z"/>
	<path d="M170.409,73.818H59.488l-1.092,2.941h109.713C168.838,75.748,169.605,74.768,170.409,73.818z"/>
	<path d="M205.79,68.586v-2.941h-20.206c-1.647,0.881-3.233,1.863-4.747,2.941H205.79z"/>
	<path d="M179.402,65.645H62.521l-1.092,2.941h114.174C176.816,67.543,178.085,66.561,179.402,65.645z"/>
	<path d="M32.193,147.381l-1.091,2.941h171.132c-4.535-0.359-8.89-1.371-12.969-2.941H32.193z"/>
	<path d="M205.936,57.471v2.941c23.978,0,43.484,19.508,43.484,43.484s-19.507,43.484-43.484,43.484v2.941
		c25.6,0,46.426-20.826,46.426-46.426S231.535,57.471,205.936,57.471z"/>
	<path d="M189.264,60.412c4.08-1.57,8.435-2.582,12.971-2.941H65.554l-1.091,2.941H189.264z"/>
</g>
<g>
	<path d="M40.498,173.497v17.647h22.551v8.66H40.498v17.647h25.981v8.661H31.103v-61.277h35.377v8.661H40.498z"/>
	<path d="M123.507,164.836v61.277h-9.478v-26.227H83.963v26.227h-9.396v-61.277h9.396v26.145h30.066v-26.145H123.507z"/>
	<path d="M175.632,209.691c0,10.049-7.68,16.422-17.32,16.422h-25.982v-61.277h22.959c9.723,0,17.566,6.536,17.566,16.586
		c0,6.455-2.941,10.948-7.844,13.48C171.466,197.027,175.632,202.012,175.632,209.691z M154.227,173.66h-12.501v17.647h12.501
		c5.065,0,9.232-3.922,9.232-8.987C163.459,177.337,159.292,173.66,154.227,173.66z M166.237,208.547
		c0-4.983-4.086-8.905-9.233-8.905h-15.278v17.647h15.278C162.151,217.289,166.237,213.612,166.237,208.547z"/>
	<path d="M220.647,212.959h-29.168l-5.065,13.154h-10.213l24.593-61.277h10.54l24.593,61.277h-10.213L220.647,212.959z
		 M217.462,204.543l-11.357-29.575l-11.357,29.575H217.462z"/>
</g>
</svg>
